<svg xmlns="http://www.w3.org/2000/svg" xmlns:xlink="http://www.w3.org/1999/xlink" width="500" zoomAndPan="magnify" viewBox="0 0 375 374.999991" height="500" preserveAspectRatio="xMidYMid meet" version="1.0"><defs><filter x="0%" y="0%" width="100%" height="100%" id="ee397ceaee"><feColorMatrix values="0 0 0 0 1 0 0 0 0 1 0 0 0 0 1 0 0 0 1 0" color-interpolation-filters="sRGB"/></filter><g/><clipPath id="a54b08d119"><path d="M 187.5 0 C 83.945312 0 0 83.945312 0 187.5 C 0 291.054688 83.945312 375 187.5 375 C 291.054688 375 375 291.054688 375 187.5 C 375 83.945312 291.054688 0 187.5 0 Z M 187.5 0 " clip-rule="nonzero"/></clipPath><mask id="3b790d14e0"><g filter="url(#ee397ceaee)"><rect x="-37.5" width="450" fill="#000000" y="-37.499999" height="449.999989" fill-opacity="0.95"/></g></mask><clipPath id="740438caac"><rect x="0" width="115" y="0" height="301"/></clipPath></defs><g clip-path="url(#a54b08d119)"><rect x="-37.5" width="450" fill="#1c71d9" y="-37.499999" height="449.999989" fill-opacity="1"/></g><g mask="url(#3b790d14e0)"><g transform="matrix(1, 0, 0, 1, 130, 37)"><g clip-path="url(#740438caac)"><g fill="#ffffff" fill-opacity="1"><g transform="translate(1.107364, 241.913043)"><g><path d="M 30.484375 -45.21875 L 30.484375 -138.796875 L 11.828125 -138.796875 C 8.847656 -138.796875 6.742188 -142.5625 5.515625 -150.09375 C 4.992188 -153.769531 4.734375 -157.535156 4.734375 -161.390625 C 4.734375 -165.242188 4.992188 -169.015625 5.515625 -172.703125 C 6.742188 -180.234375 8.847656 -184 11.828125 -184 L 100.15625 -184 C 103.132812 -184 105.144531 -180.234375 106.1875 -172.703125 C 106.894531 -169.015625 107.25 -165.242188 107.25 -161.390625 C 107.25 -157.535156 106.894531 -153.769531 106.1875 -150.09375 C 105.144531 -142.5625 103.132812 -138.796875 100.15625 -138.796875 L 82.53125 -138.796875 L 82.53125 -45.21875 L 100.9375 -45.21875 C 103.914062 -45.21875 106.019531 -41.445312 107.25 -33.90625 C 107.945312 -30.226562 108.296875 -26.460938 108.296875 -22.609375 C 108.296875 -18.753906 107.945312 -14.984375 107.25 -11.296875 C 106.019531 -3.765625 103.914062 0 100.9375 0 L 12.359375 0 C 9.378906 0 7.363281 -3.765625 6.3125 -11.296875 C 5.601562 -14.984375 5.25 -18.753906 5.25 -22.609375 C 5.25 -26.460938 5.601562 -30.226562 6.3125 -33.90625 C 7.363281 -41.445312 9.378906 -45.21875 12.359375 -45.21875 Z M 30.484375 -45.21875 "/></g></g></g></g></g></g></svg>