<svg xmlns="http://www.w3.org/2000/svg" xmlns:xlink="http://www.w3.org/1999/xlink" width="500" zoomAndPan="magnify" viewBox="0 0 375 123.000003" height="164" preserveAspectRatio="xMidYMid meet" version="1.0"><defs><g/></defs><g fill="#1c71d9" fill-opacity="1"><g transform="translate(5.580578, 102.293352)"><g><path d="M 5.328125 -45.90625 L 5.328125 -58.890625 L 18.625 -58.890625 L 18.625 -45.90625 Z M 5.140625 0 L 5.140625 -42.78125 L 18.71875 -42.78125 L 18.71875 0 Z M 5.140625 0 "/></g></g></g><g fill="#ffffff" fill-opacity="1"><g transform="translate(29.433526, 102.293352)"><g><path d="M 1.109375 0 L 20.9375 -58.890625 L 43.484375 -58.890625 L 63.21875 0 L 48.921875 0 L 44.796875 -12.375 L 19.625 -12.375 L 15.40625 0 Z M 23.15625 -22.953125 L 41.171875 -22.953125 L 32.203125 -49.71875 Z M 23.15625 -22.953125 "/></g></g></g><g fill="#ffffff" fill-opacity="1"><g transform="translate(93.744245, 102.293352)"><g><path d="M 5.140625 17.21875 L 5.140625 -42.78125 L 17.921875 -42.78125 L 18.71875 -38.65625 C 22.28125 -42.070312 27.25 -43.78125 33.625 -43.78125 C 40.0625 -43.78125 45.070312 -41.785156 48.65625 -37.796875 C 52.25 -33.804688 54.046875 -28.453125 54.046875 -21.734375 C 54.046875 -15.566406 52.316406 -10.300781 48.859375 -5.9375 C 45.410156 -1.570312 41 0.609375 35.625 0.609375 C 27.914062 0.609375 22.28125 -1.238281 18.71875 -4.9375 L 18.71875 17.21875 Z M 30.390625 -9.15625 C 33.273438 -9.15625 35.675781 -10.328125 37.59375 -12.671875 C 39.507812 -15.023438 40.46875 -18.046875 40.46875 -21.734375 L 40.46875 -22.84375 C 40.46875 -26.738281 39.441406 -29.570312 37.390625 -31.34375 C 35.347656 -33.125 32.71875 -34.015625 29.5 -34.015625 C 26.738281 -34.015625 24.25 -33.160156 22.03125 -31.453125 C 19.820312 -29.742188 18.71875 -27.648438 18.71875 -25.171875 L 18.71875 -18.421875 C 18.71875 -15.804688 19.875 -13.609375 22.1875 -11.828125 C 24.507812 -10.046875 27.242188 -9.15625 30.390625 -9.15625 Z M 30.390625 -9.15625 "/></g></g></g><g fill="#ffffff" fill-opacity="1"><g transform="translate(150.909336, 102.293352)"><g><path d="M 5.140625 17.21875 L 5.140625 -42.78125 L 17.921875 -42.78125 L 18.71875 -38.65625 C 22.28125 -42.070312 27.25 -43.78125 33.625 -43.78125 C 40.0625 -43.78125 45.070312 -41.785156 48.65625 -37.796875 C 52.25 -33.804688 54.046875 -28.453125 54.046875 -21.734375 C 54.046875 -15.566406 52.316406 -10.300781 48.859375 -5.9375 C 45.410156 -1.570312 41 0.609375 35.625 0.609375 C 27.914062 0.609375 22.28125 -1.238281 18.71875 -4.9375 L 18.71875 17.21875 Z M 30.390625 -9.15625 C 33.273438 -9.15625 35.675781 -10.328125 37.59375 -12.671875 C 39.507812 -15.023438 40.46875 -18.046875 40.46875 -21.734375 L 40.46875 -22.84375 C 40.46875 -26.738281 39.441406 -29.570312 37.390625 -31.34375 C 35.347656 -33.125 32.71875 -34.015625 29.5 -34.015625 C 26.738281 -34.015625 24.25 -33.160156 22.03125 -31.453125 C 19.820312 -29.742188 18.71875 -27.648438 18.71875 -25.171875 L 18.71875 -18.421875 C 18.71875 -15.804688 19.875 -13.609375 22.1875 -11.828125 C 24.507812 -10.046875 27.242188 -9.15625 30.390625 -9.15625 Z M 30.390625 -9.15625 "/></g></g></g><g fill="#ffffff" fill-opacity="1"><g transform="translate(208.074427, 102.293352)"><g><path d="M 18.71875 0.609375 C 9.320312 0.609375 4.625 -5.734375 4.625 -18.421875 L 4.625 -58.890625 L 18.21875 -58.890625 L 18.21875 -15.296875 C 18.21875 -11.535156 20.195312 -9.488281 24.15625 -9.15625 L 24.15625 0.203125 C 22.613281 0.472656 20.800781 0.609375 18.71875 0.609375 Z M 18.71875 0.609375 "/></g></g></g><g fill="#ffffff" fill-opacity="1"><g transform="translate(234.644111, 102.293352)"><g><path d="M 5.328125 -45.90625 L 5.328125 -58.890625 L 18.625 -58.890625 L 18.625 -45.90625 Z M 5.140625 0 L 5.140625 -42.78125 L 18.71875 -42.78125 L 18.71875 0 Z M 5.140625 0 "/></g></g></g><g fill="#ffffff" fill-opacity="1"><g transform="translate(258.496446, 102.293352)"><g><path d="M 27.6875 0.609375 C 19.5 0.609375 13.359375 -1.46875 9.265625 -5.625 C 5.171875 -9.789062 3.125 -15.097656 3.125 -21.546875 C 3.125 -28.117188 5.117188 -33.46875 9.109375 -37.59375 C 13.097656 -41.71875 19.1875 -43.78125 27.375 -43.78125 C 35.5 -43.78125 41.488281 -41.71875 45.34375 -37.59375 C 49.207031 -33.46875 51.140625 -28.117188 51.140625 -21.546875 L 51.140625 -16.609375 L 16.703125 -16.609375 C 17.109375 -13.785156 18.195312 -11.835938 19.96875 -10.765625 C 21.75 -9.691406 24.285156 -9.15625 27.578125 -9.15625 C 31.535156 -9.15625 34.117188 -10.429688 35.328125 -12.984375 L 49.015625 -12.984375 C 48.546875 -9.085938 46.296875 -5.847656 42.265625 -3.265625 C 38.242188 -0.679688 33.382812 0.609375 27.6875 0.609375 Z M 16.8125 -26.171875 L 37.75 -26.171875 C 36.8125 -29.253906 35.535156 -31.332031 33.921875 -32.40625 C 32.304688 -33.476562 30.085938 -34.015625 27.265625 -34.015625 C 24.453125 -34.015625 22.238281 -33.476562 20.625 -32.40625 C 19.019531 -31.332031 17.75 -29.253906 16.8125 -26.171875 Z M 16.8125 -26.171875 "/></g></g></g><g fill="#ffffff" fill-opacity="1"><g transform="translate(312.239683, 102.293352)"><g><path d="M 21.546875 0.609375 C 16.171875 0.609375 11.753906 -1.570312 8.296875 -5.9375 C 4.847656 -10.300781 3.125 -15.566406 3.125 -21.734375 C 3.125 -28.453125 4.898438 -33.804688 8.453125 -37.796875 C 12.015625 -41.785156 17.046875 -43.78125 23.546875 -43.78125 C 30.054688 -43.78125 35.023438 -42.070312 38.453125 -38.65625 L 38.453125 -58.890625 L 52.046875 -58.890625 L 52.046875 0 L 39.25 0 L 38.453125 -4.9375 C 34.890625 -1.238281 29.253906 0.609375 21.546875 0.609375 Z M 26.78125 -9.15625 C 29.925781 -9.15625 32.65625 -10.046875 34.96875 -11.828125 C 37.289062 -13.609375 38.453125 -15.804688 38.453125 -18.421875 L 38.453125 -25.171875 C 38.453125 -27.710938 37.359375 -29.820312 35.171875 -31.5 C 32.992188 -33.175781 30.5 -34.015625 27.6875 -34.015625 C 24.457031 -34.015625 21.816406 -33.125 19.765625 -31.34375 C 17.722656 -29.570312 16.703125 -26.738281 16.703125 -22.84375 L 16.703125 -21.734375 C 16.703125 -18.046875 17.675781 -15.023438 19.625 -12.671875 C 21.570312 -10.328125 23.957031 -9.15625 26.78125 -9.15625 Z M 26.78125 -9.15625 "/></g></g></g></svg>